# xmcd
#
# Track frame offsets:
#  150
#  16260
#  31416
#  48299
#  72283
#  87662
#  103208
#
# Disc length: 1624 seconds
#
# Revision: 0
# Processed by: cddbd v1.5.1PL2 Copyright (c) Steve Scherf et al.
# Submitted via: Collectorz.com_Music_Collector 6.9
#
DISCID=58065607
DTITLE=Silver Saddle - Northern Skyline
DYEAR=2006
DGENRE=Americana
TTITLE0=Time Drags On
TTITLE1=She's Coming Down
TTITLE2=Here I Am
TTITLE3=Ain't Worth a Thing
TTITLE4=Falling
TTITLE5=Allright Guy
TTITLE6=Tunes You Played
EXTD=
EXTT0=
EXTT1=
EXTT2=
EXTT3=
EXTT4=
EXTT5=
EXTT6=
PLAYORDER=
